<?xml version="1.0" encoding="UTF-8"?>
<svg id="Camada_2" data-name="Camada 2" xmlns="http://www.w3.org/2000/svg" xmlns:xlink="http://www.w3.org/1999/xlink" viewBox="0 0 1516.06 1110.14">
  <defs>
    <style>
      .cls-1 {
        fill: url(#Gradiente_sem_nome_128);
      }

      .cls-2 {
        fill: #fff;
      }

      .cls-3 {
        fill: url(#Gradiente_sem_nome_128-2);
      }

      .cls-4 {
        fill: url(#Gradiente_sem_nome_128-3);
      }
    </style>
    <linearGradient id="Gradiente_sem_nome_128" data-name="Gradiente sem nome 128" x1="325.28" y1="477.34" x2="1168.12" y2="228.32" gradientUnits="userSpaceOnUse">
      <stop offset="0" stop-color="#af9f82"/>
      <stop offset=".34" stop-color="#b5a485"/>
      <stop offset=".84" stop-color="#c9b28f"/>
      <stop offset="1" stop-color="#d1b993"/>
    </linearGradient>
    <linearGradient id="Gradiente_sem_nome_128-2" data-name="Gradiente sem nome 128" x1="777.55" y1="171.96" x2="1052.28" y2="56.54" xlink:href="#Gradiente_sem_nome_128"/>
    <linearGradient id="Gradiente_sem_nome_128-3" data-name="Gradiente sem nome 128" x1="946.29" y1="192.96" x2="1054.91" y2="179.45" xlink:href="#Gradiente_sem_nome_128"/>
  </defs>
  <g id="Camada_1-2" data-name="Camada 1">
    <g>
      <g>
        <path class="cls-2" d="M0,920.09h84.38c33.16,0,50.41,16.71,50.41,44.75,0,20.22-7.28,30.46-21.3,38.55,22.11,11.32,39.09,27.23,39.09,52.57,0,28.57-19.95,51.49-58.23,51.49H0v-187.36ZM78.99,947.85H31.81v65.24c9.17-10.51,23.72-15.37,42.32-21.84,19.14-6.47,28.31-11.05,28.31-25.34,0-11.86-7.82-18.06-23.45-18.06ZM94.35,1079.41c16.98,0,25.88-8.36,25.88-23.72,0-18.06-13.48-26.96-36.93-39.09-29.38,11.59-51.49,18.87-51.49,40.98v21.84h62.54Z"/>
        <path class="cls-2" d="M250.43,966.46v27.23h-18.87c-21.84,0-30.73,9.97-30.73,33.7v80.07h-30.46v-80.07c0-39.09,17.52-60.92,54.99-60.92h25.07Z"/>
        <path class="cls-2" d="M402.47,1037.09c0,40.44-30.73,73.06-73.06,73.06s-73.06-32.62-73.06-73.06,30.73-73.06,73.06-73.06,73.06,32.89,73.06,73.06ZM371.2,1037.09c0-24.26-17.52-44.21-41.79-44.21s-41.78,19.95-41.78,44.21,17.52,44.21,41.78,44.21,41.79-19.68,41.79-44.21Z"/>
        <path class="cls-2" d="M555.59,1074.83v32.62h-30.73v-29.92c0-19.41-11.59-31-26.69-31-4.58,0-9.44,1.08-14.56,3.23-19.14,8.09-29.65,16.45-29.65,39.9v17.79h-30.46v-207.58h30.46v142.61c8.9-9.44,23.45-15.64,40.17-24.53,23.99-12.67,23.72-18.87,23.72-40.98v-10.51h30.46v11.59c0,24.53-4.58,40.17-24.53,51.22,19.41,4.85,31.81,20.76,31.81,45.56Z"/>
        <path class="cls-2" d="M711.13,1043.56h-108.91c2.16,27.77,22.91,39.63,42.59,39.63,15.37,0,30.46-7.55,34.77-20.49l31.54-.27c-7.01,31-36.39,47.45-66.32,47.45-35.86,0-72.52-23.45-72.52-73.33s35.31-72.52,70.36-72.52,68.47,23.18,68.47,68.47v11.05ZM681.47,1020.91c-5.66-19.68-22.11-29.38-38.55-29.38s-32.89,9.71-38.82,29.38h77.37Z"/>
        <path class="cls-2" d="M811.68,966.46v27.23h-18.87c-21.84,0-30.73,9.97-30.73,33.7v80.07h-30.46v-80.07c0-39.09,17.52-60.92,54.99-60.92h25.07Z"/>
        <path class="cls-2" d="M968.03,919.01h19.41l-45.83,160.13c-5.93,20.76-17.25,30.73-39.36,30.73s-33.16-9.98-39.09-30.73l-45.83-160.13h19.41l43.67,155.82c4.04,14.56,11.32,18.06,21.84,18.06s18.06-3.5,22.11-18.06l43.67-155.82Z"/>
        <path class="cls-2" d="M1003.34,917.93c0-6.47,5.39-11.86,12.13-11.86s11.86,5.39,11.86,11.86-5.39,12.13-11.86,12.13-12.13-5.39-12.13-12.13ZM1006.84,1107.45v-141.53h17.25v141.53h-17.25Z"/>
        <path class="cls-2" d="M1153.76,1071.86c0,24.26-24.26,37.74-52.03,37.74s-52.84-13.75-54.72-43.94h17.25c1.62,19.41,18.06,28.31,37.47,28.31s34.78-8.09,34.78-22.11c0-38.82-84.11-10.78-84.11-68.2,0-26.42,18.06-39.63,46.64-39.63,26.42,0,42.86,12.67,47.18,37.2h-16.44c-3.5-13.75-13.21-21.84-30.73-21.84-19.95,0-29.65,8.63-29.65,24.26,0,40.98,84.38,11.32,84.38,68.2Z"/>
        <path class="cls-2" d="M1174.25,917.93c0-6.47,5.39-11.86,12.13-11.86s11.86,5.39,11.86,11.86-5.39,12.13-11.86,12.13-12.13-5.39-12.13-12.13ZM1177.75,1107.45v-141.53h17.25v141.53h-17.25Z"/>
        <path class="cls-2" d="M1367.26,1036.82c0,40.44-30.73,73.32-73.33,73.32s-73.32-32.89-73.32-73.32,30.73-73.33,73.32-73.33,73.33,32.89,73.33,73.33ZM1349.2,1036.82c0-31.81-23.18-57.69-55.26-57.69s-55.26,25.88-55.26,57.69,23.18,57.69,55.26,57.69,55.26-25.88,55.26-57.69Z"/>
        <path class="cls-2" d="M1516.06,1027.65v79.8h-17.25v-82.49c0-29.92-20.76-44.75-45.29-44.75s-45.56,14.83-45.56,44.75v82.49h-17.25v-79.8c0-42.59,29.65-63.89,62.81-64.16,32.89,0,62.54,21.3,62.54,64.16Z"/>
      </g>
      <path class="cls-1" d="M494.46,48.85l332.64,533.72c20.64,33.13,68.85,33.2,89.59.13l229.16-365.27,18.93,30.4c13,20.89,13,47.35,0,68.23l-226.8,364.16c-16.62,26.69-45.82,42.92-77.26,42.96l-241.99.27c-39.22.04-75.68-20.16-96.42-53.44l-213.78-342.91c-17.34-27.82-17.12-63.13.56-90.73l120.42-187.93c15.23-23.76,50.03-23.55,64.95.41Z"/>
      <path class="cls-3" d="M685.93,166.56l108.02,173.44L969.1,58.78C985.07,33.14,966.6-.05,936.4,0l-155.59.25c-18.87.03-36.39,9.78-46.36,25.79l-48.51,77.9c-11.94,19.17-11.94,43.45,0,62.62Z"/>
      <path class="cls-4" d="M950.23,218.8l37.97-60.88c9.14-14.65,30.47-14.61,39.55.08l36.37,58.82-113.9,1.99Z"/>
    </g>
  </g>
</svg>