<?xml version="1.0" encoding="UTF-8"?>
<svg id="Camada_2" data-name="Camada 2" xmlns="http://www.w3.org/2000/svg" xmlns:xlink="http://www.w3.org/1999/xlink" viewBox="0 0 1622.56 272.85">
  <defs>
    <style>
      .cls-1 {
        fill: url(#bv-mark-gradient-light);
      }

      .cls-2 {
        fill: #0a0a0a;
      }

      .cls-3 {
        fill: url(#bv-mark-gradient-light-2);
      }

      .cls-4 {
        fill: url(#bv-mark-gradient-light-3);
      }
    </style>
    <!-- Tema claro: degradê verde BrokerVision (bom contraste em fundos claros) -->
    <linearGradient id="bv-mark-gradient-light" data-name="BV mark light" x1="11.17" y1="180.03" x2="329.05" y2="86.11" gradientUnits="userSpaceOnUse">
      <stop offset="0" stop-color="#005c3d"/>
      <stop offset=".45" stop-color="#00a854"/>
      <stop offset="1" stop-color="#00f5a0"/>
    </linearGradient>
    <linearGradient id="bv-mark-gradient-light-2" data-name="BV mark light 2" x1="181.74" y1="64.85" x2="285.36" y2="21.32" xlink:href="#bv-mark-gradient-light"/>
    <linearGradient id="bv-mark-gradient-light-3" data-name="BV mark light 3" x1="245.39" y1="72.77" x2="286.35" y2="67.68" xlink:href="#bv-mark-gradient-light"/>
  </defs>
  <g id="Camada_1-2" data-name="Camada 1">
    <g>
      <g>
        <path class="cls-2" d="M445.58,62.31h65.51c25.74,0,39.14,12.98,39.14,34.74,0,15.7-5.65,23.65-16.53,29.93,17.16,8.79,30.35,21.14,30.35,40.81,0,22.18-15.49,39.97-45.21,39.97h-73.25V62.31ZM506.9,83.86h-36.63v50.65c7.12-8.16,18.42-11.93,32.86-16.95,14.86-5.02,21.98-8.58,21.98-19.67,0-9.21-6.07-14.02-18.21-14.02ZM518.83,186c13.18,0,20.09-6.49,20.09-18.42,0-14.02-10.46-20.93-28.67-30.35-22.81,9-39.97,14.65-39.97,31.81v16.95h48.55Z"/>
        <path class="cls-2" d="M640,98.3v21.14h-14.65c-16.95,0-23.86,7.74-23.86,26.16v62.16h-23.65v-62.16c0-30.35,13.6-47.3,42.69-47.3h19.46Z"/>
        <path class="cls-2" d="M758.03,153.14c0,31.39-23.86,56.72-56.72,56.72s-56.72-25.32-56.72-56.72,23.86-56.72,56.72-56.72,56.72,25.53,56.72,56.72ZM733.76,153.14c0-18.84-13.6-34.32-32.44-34.32s-32.44,15.49-32.44,34.32,13.6,34.32,32.44,34.32,32.44-15.28,32.44-34.32Z"/>
        <path class="cls-2" d="M876.9,182.44v25.32h-23.86v-23.23c0-15.07-9-24.07-20.72-24.07-3.56,0-7.33.84-11.3,2.51-14.86,6.28-23.02,12.77-23.02,30.97v13.81h-23.65V46.61h23.65v110.71c6.91-7.33,18.21-12.14,31.18-19.05,18.63-9.84,18.42-14.65,18.42-31.81v-8.16h23.65v9c0,19.05-3.56,31.18-19.05,39.76,15.07,3.77,24.7,16.12,24.7,35.37Z"/>
        <path class="cls-2" d="M997.66,158.16h-84.55c1.67,21.56,17.79,30.77,33.07,30.77,11.93,0,23.65-5.86,27-15.91l24.49-.21c-5.44,24.07-28.25,36.84-51.48,36.84-27.84,0-56.3-18.21-56.3-56.93s27.42-56.3,54.62-56.3,53.16,18,53.16,53.16v8.58ZM974.64,140.58c-4.39-15.28-17.16-22.81-29.93-22.81s-25.53,7.54-30.14,22.81h60.07Z"/>
        <path class="cls-2" d="M1075.72,98.3v21.14h-14.65c-16.95,0-23.86,7.74-23.86,26.16v62.16h-23.65v-62.16c0-30.35,13.6-47.3,42.69-47.3h19.46Z"/>
        <path class="cls-2" d="M1197.1,61.47h15.07l-35.58,124.32c-4.6,16.12-13.39,23.86-30.56,23.86s-25.74-7.74-30.35-23.86l-35.58-124.32h15.07l33.9,120.97c3.14,11.3,8.79,14.02,16.95,14.02s14.02-2.72,17.16-14.02l33.9-120.97Z"/>
        <path class="cls-2" d="M1224.51,60.63c0-5.02,4.19-9.21,9.42-9.21s9.21,4.19,9.21,9.21-4.19,9.42-9.21,9.42-9.42-4.19-9.42-9.42ZM1227.23,207.76v-109.88h13.39v109.88h-13.39Z"/>
        <path class="cls-2" d="M1341.29,180.14c0,18.84-18.84,29.3-40.39,29.3s-41.02-10.67-42.48-34.11h13.39c1.26,15.07,14.02,21.98,29.09,21.98s27-6.28,27-17.16c0-30.14-65.3-8.37-65.3-52.95,0-20.51,14.02-30.77,36.21-30.77,20.51,0,33.28,9.84,36.62,28.88h-12.77c-2.72-10.67-10.26-16.95-23.86-16.95-15.49,0-23.02,6.7-23.02,18.84,0,31.81,65.51,8.79,65.51,52.95Z"/>
        <path class="cls-2" d="M1357.2,60.63c0-5.02,4.19-9.21,9.42-9.21s9.21,4.19,9.21,9.21-4.19,9.42-9.21,9.42-9.42-4.19-9.42-9.42ZM1359.92,207.76v-109.88h13.39v109.88h-13.39Z"/>
        <path class="cls-2" d="M1507.04,152.93c0,31.39-23.86,56.93-56.93,56.93s-56.93-25.53-56.93-56.93,23.86-56.93,56.93-56.93,56.93,25.53,56.93,56.93ZM1493.02,152.93c0-24.7-18-44.79-42.9-44.79s-42.9,20.09-42.9,44.79,18,44.79,42.9,44.79,42.9-20.09,42.9-44.79Z"/>
        <path class="cls-2" d="M1622.56,145.81v61.95h-13.39v-64.04c0-23.23-16.12-34.74-35.16-34.74s-35.37,11.51-35.37,34.74v64.04h-13.39v-61.95c0-33.07,23.02-49.6,48.76-49.81,25.53,0,48.55,16.53,48.55,49.81Z"/>
      </g>
      <g>
        <path class="cls-1" d="M74.97,18.42l125.45,201.29c7.79,12.49,25.97,12.52,33.79.05l86.43-137.76,7.14,11.46c4.9,7.88,4.9,17.86,0,25.73l-85.54,137.34c-6.27,10.06-17.28,16.19-29.14,16.2l-91.27.1c-14.79.02-28.54-7.6-36.37-20.16L4.85,123.37c-6.54-10.49-6.46-23.81.21-34.22L50.48,18.27c5.74-8.96,18.87-8.88,24.5.15Z"/>
        <path class="cls-3" d="M147.19,62.82l40.74,65.41L253.99,22.17C260.01,12.5,253.04-.02,241.65,0l-58.68.1c-7.12.01-13.72,3.69-17.48,9.73l-18.3,29.38c-4.5,7.23-4.5,16.39,0,23.62Z"/>
        <path class="cls-4" d="M246.87,82.52l14.32-22.96c3.45-5.52,11.49-5.51,14.92.03l13.72,22.18-42.96.75Z"/>
      </g>
    </g>
  </g>
</svg>