<?xml version="1.0" encoding="UTF-8"?>
<svg id="Camada_2" data-name="Camada 2" xmlns="http://www.w3.org/2000/svg" viewBox="0 0 1778.3 246.64">
  <defs>
    <style>
      .cls-1 {
        fill: #fff;
      }
    </style>
  </defs>
  <g id="Camada_1-2" data-name="Camada 1">
    <g>
      <path class="cls-1" d="M0,23.72h98.98c38.89,0,59.13,19.6,59.13,52.49,0,23.72-8.54,35.73-24.98,45.22,25.93,13.28,45.85,31.94,45.85,61.66,0,33.52-23.4,60.4-68.3,60.4H0V23.72ZM92.65,56.28h-55.34v76.52c10.75-12.33,27.83-18.02,49.64-25.61,22.45-7.59,33.2-12.96,33.2-29.72,0-13.91-9.17-21.19-27.51-21.19ZM110.67,210.6c19.92,0,30.36-9.8,30.36-27.83,0-21.19-15.81-31.62-43.32-45.85-34.47,13.6-60.4,22.13-60.4,48.06v25.61h73.36Z"/>
      <path class="cls-1" d="M293.75,78.11v31.94h-22.13c-25.61,0-36.05,11.7-36.05,39.53v93.92h-35.73v-93.92c0-45.85,20.55-71.46,64.51-71.46h29.41Z"/>
      <path class="cls-1" d="M472.09,160.95c0,47.43-36.05,85.69-85.69,85.69s-85.69-38.26-85.69-85.69,36.05-85.69,85.69-85.69,85.69,38.58,85.69,85.69ZM435.41,160.95c0-28.46-20.55-51.86-49.01-51.86s-49.01,23.4-49.01,51.86,20.55,51.86,49.01,51.86,49.01-23.08,49.01-51.86Z"/>
      <path class="cls-1" d="M651.69,205.22v38.26h-36.05v-35.1c0-22.77-13.6-36.36-31.3-36.36-5.38,0-11.07,1.27-17.08,3.79-22.45,9.49-34.78,19.29-34.78,46.8v20.87h-35.73V0h35.73v167.28c10.44-11.07,27.51-18.34,47.12-28.78,28.14-14.86,27.83-22.13,27.83-48.06v-12.33h35.73v13.6c0,28.78-5.38,47.12-28.78,60.08,22.77,5.69,37.31,24.35,37.31,53.44Z"/>
      <path class="cls-1" d="M834.13,168.54h-127.75c2.53,32.57,26.88,46.48,49.96,46.48,18.02,0,35.73-8.85,40.79-24.03l37-.32c-8.22,36.36-42.69,55.65-77.79,55.65-42.06,0-85.06-27.51-85.06-86.01s41.42-85.06,82.53-85.06,80.32,27.19,80.32,80.32v12.97ZM799.35,141.98c-6.64-23.08-25.93-34.47-45.22-34.47s-38.58,11.38-45.54,34.47h90.75Z"/>
      <path class="cls-1" d="M952.07,78.11v31.94h-22.13c-25.61,0-36.05,11.7-36.05,39.53v93.92h-35.73v-93.92c0-45.85,20.55-71.46,64.51-71.46h29.41Z"/>
      <path class="cls-1" d="M1135.47,22.45h22.77l-53.76,187.83c-6.96,24.35-20.24,36.05-46.17,36.05s-38.89-11.7-45.85-36.05l-53.76-187.83h22.77l51.23,182.77c4.74,17.07,13.28,21.18,25.61,21.18s21.18-4.11,25.93-21.18l51.23-182.77Z"/>
      <path class="cls-1" d="M1176.89,21.19c0-7.59,6.32-13.91,14.23-13.91s13.91,6.32,13.91,13.91-6.32,14.23-13.91,14.23-14.23-6.32-14.23-14.23ZM1181,243.48V77.47h20.24v166.01h-20.24Z"/>
      <path class="cls-1" d="M1353.33,201.74c0,28.46-28.46,44.27-61.03,44.27s-61.98-16.13-64.19-51.54h20.24c1.9,22.77,21.18,33.2,43.95,33.2s40.79-9.49,40.79-25.93c0-45.54-98.66-12.65-98.66-80,0-30.99,21.18-46.48,54.7-46.48,30.99,0,50.28,14.86,55.34,43.64h-19.29c-4.11-16.13-15.5-25.61-36.05-25.61-23.4,0-34.78,10.12-34.78,28.46,0,48.06,98.97,13.28,98.97,80Z"/>
      <path class="cls-1" d="M1377.36,21.19c0-7.59,6.32-13.91,14.23-13.91s13.91,6.32,13.91,13.91-6.32,14.23-13.91,14.23-14.23-6.32-14.23-14.23ZM1381.47,243.48V77.47h20.24v166.01h-20.24Z"/>
      <path class="cls-1" d="M1603.76,160.64c0,47.43-36.05,86.01-86.01,86.01s-86.01-38.58-86.01-86.01,36.05-86.01,86.01-86.01,86.01,38.58,86.01,86.01ZM1582.57,160.64c0-37.31-27.19-67.67-64.82-67.67s-64.82,30.36-64.82,67.67,27.19,67.67,64.82,67.67,64.82-30.36,64.82-67.67Z"/>
      <path class="cls-1" d="M1778.3,149.88v93.6h-20.24v-96.76c0-35.1-24.35-52.49-53.12-52.49s-53.44,17.39-53.44,52.49v96.76h-20.24v-93.6c0-49.96,34.78-74.94,73.68-75.26,38.58,0,73.36,24.98,73.36,75.26Z"/>
    </g>
  </g>
</svg>