<?xml version="1.0" encoding="UTF-8"?>
<svg id="Camada_2" data-name="Camada 2" xmlns="http://www.w3.org/2000/svg" xmlns:xlink="http://www.w3.org/1999/xlink" viewBox="0 0 1286.25 1058.81">
  <defs>
    <style>
      .cls-1 {
        fill: url(#bv-mark-gradient-dark);
      }

      .cls-2 {
        fill: url(#bv-mark-gradient-dark-2);
      }

      .cls-3 {
        fill: url(#bv-mark-gradient-dark-3);
      }
    </style>
    <!-- Símbolo BrokerVision: floresta → verde → mint (favicon / ícone geral) -->
    <linearGradient id="bv-mark-gradient-dark" data-name="BV mark" x1="43.34" y1="698.61" x2="1276.88" y2="334.15" gradientUnits="userSpaceOnUse">
      <stop offset="0" stop-color="#062016"/>
      <stop offset=".45" stop-color="#00a854"/>
      <stop offset="1" stop-color="#00f5a0"/>
    </linearGradient>
    <linearGradient id="bv-mark-gradient-dark-2" data-name="BV mark 2" x1="705.27" y1="251.67" x2="1107.35" y2="82.75" xlink:href="#bv-mark-gradient-dark"/>
    <linearGradient id="bv-mark-gradient-dark-3" data-name="BV mark 3" x1="952.23" y1="282.41" x2="1111.2" y2="262.63" xlink:href="#bv-mark-gradient-dark"/>
  </defs>
  <g id="Camada_1-2" data-name="Camada 1">
    <g>
      <path class="cls-1" d="M290.94,71.49l486.83,781.12c30.21,48.48,100.76,48.59,131.12.19l335.38-534.58,27.7,44.49c19.03,30.57,19.03,69.3,0,99.86l-331.93,532.97c-24.32,39.06-67.06,62.82-113.07,62.87l-354.17.4c-57.4.07-110.76-29.51-141.12-78.22L18.81,478.73c-25.38-40.71-25.06-92.39.82-132.79L195.88,70.89c22.29-34.78,73.21-34.46,95.06.6Z"/>
      <path class="cls-2" d="M571.18,243.77l158.09,253.85L985.61,86.03C1008.98,48.51,981.95-.07,937.75,0l-227.72.37c-27.61.05-53.25,14.31-67.85,37.75l-71,114c-17.47,28.05-17.47,63.59,0,91.64Z"/>
      <path class="cls-3" d="M958,320.22l55.57-89.1c13.37-21.44,44.6-21.38,57.89.11l53.24,86.08-166.7,2.91Z"/>
    </g>
  </g>
</svg>
